<?xml version="1.0" encoding="UTF-8"?>
<!-- Generated by Pixelmator Pro 3.7.1 -->
<svg width="4312" height="3433" viewBox="0 0 4312 3433" xmlns="http://www.w3.org/2000/svg">
    <path id="Path" fill="#ff9606" stroke="none" d="M 3239.024658 2023.536133 C 2953.950684 1616.286621 2768.217773 1512.364502 2621.363525 1446.599609 C 2430.984863 1361.343018 1820.439697 1392.299561 2241.262939 1657.01123 C 2662.088135 1921.724854 2879.28833 2362.910156 2967.524414 2600.472656 C 3055.762207 2838.035645 3381.562744 3286.009766 4006.010742 3279.222656 C 4079.039307 3278.429199 4145.227539 3276.773926 4205.616211 3274.515869 L 4205.616211 2528.773926 C 3752.193604 2557.563965 3495.269043 2389.600586 3239.024658 2023.536133 Z M 2507.119141 1608.560547 C 2452.764893 1608.560547 2408.700928 1579.691406 2408.700928 1544.078369 C 2408.700928 1508.467285 2452.764893 1479.598145 2507.119141 1479.598145 C 2561.474854 1479.598145 2605.538818 1508.467285 2605.538818 1544.078369 C 2605.538818 1579.691406 2561.474854 1608.560547 2507.119141 1608.560547 Z M 2798.77124 1806.614746 C 2744.417236 1806.614746 2700.353027 1777.745605 2700.353027 1742.132813 C 2700.353027 1706.521729 2744.417236 1677.652344 2798.77124 1677.652344 C 2853.126953 1677.652344 2897.191162 1706.521729 2897.191162 1742.132813 C 2897.191162 1777.745605 2853.126953 1806.614746 2798.77124 1806.614746 Z M 3013.283447 2055.83667 C 2958.92749 2055.83667 2914.865234 2026.967285 2914.865234 1991.356201 C 2914.865234 1955.743408 2958.92749 1926.874268 3013.283447 1926.874268 C 3067.637451 1926.874268 3111.701416 1955.743408 3111.701416 1991.356201 C 3111.701416 2026.967285 3067.637451 2055.83667 3013.283447 2055.83667 Z M 3210.119385 2310.328613 C 3155.765625 2310.328613 3111.701416 2281.459473 3111.701416 2245.846191 C 3111.701416 2210.235352 3155.765625 2181.366211 3210.119385 2181.366211 C 3264.475342 2181.366211 3308.539551 2210.235352 3308.539551 2245.846191 C 3308.539551 2281.459473 3264.475342 2310.328613 3210.119385 2310.328613 Z M 3467.128662 2547.137207 C 3412.774414 2547.137207 3368.710449 2518.268066 3368.710449 2482.656738 C 3368.710449 2447.043945 3412.774414 2418.174805 3467.128662 2418.174805 C 3521.484375 2418.174805 3565.546631 2447.043945 3565.546631 2482.656738 C 3565.546631 2518.268066 3521.484375 2547.137207 3467.128662 2547.137207 Z M 3809.012695 2694.147949 C 3754.656738 2694.147949 3710.592529 2665.278809 3710.592529 2629.667725 C 3710.592529 2594.054688 3754.656738 2565.185547 3809.012695 2565.185547 C 3863.366699 2565.185547 3907.430664 2594.054688 3907.430664 2629.667725 C 3907.430664 2665.278809 3863.366699 2694.147949 3809.012695 2694.147949 Z"/>
</svg>
